<svg xmlns="http://www.w3.org/2000/svg" viewBox="0 0 1600 1600" width="1600" height="1600" role="img" aria-labelledby="title desc">
  <title id="title">City Venture: B2B Connect</title>
  <desc id="desc">Tablero futurista tipo Monopoly con 24 casillas, recorrido horario y Venture Tower al centro.</desc>
  <defs>
    <linearGradient id="bgGrad" x1="0%" y1="0%" x2="100%" y2="100%"><stop offset="0%" stop-color="#061018"/><stop offset="55%" stop-color="#0b1a24"/><stop offset="100%" stop-color="#09111a"/></linearGradient>
    <linearGradient id="boardGrad" x1="0%" y1="0%" x2="100%" y2="100%"><stop offset="0%" stop-color="#102430"/><stop offset="100%" stop-color="#071219"/></linearGradient>
    <linearGradient id="centerGrad" x1="0%" y1="0%" x2="100%" y2="100%"><stop offset="0%" stop-color="#0e2531"/><stop offset="100%" stop-color="#09131b"/></linearGradient>
    <radialGradient id="coreGlow" cx="50%" cy="45%" r="60%"><stop offset="0%" stop-color="#39e7ff" stop-opacity="0.23"/><stop offset="100%" stop-color="#39e7ff" stop-opacity="0"/></radialGradient>
    <pattern id="microGrid" width="36" height="36" patternUnits="userSpaceOnUse"><path d="M36 0H0V36" fill="none" stroke="#102935" stroke-width="1"/></pattern>
    <pattern id="circuitPattern" width="140" height="140" patternUnits="userSpaceOnUse"><path d="M12 98H54V46H88V22H128" fill="none" stroke="#173948" stroke-width="2"/><path d="M20 20V58H50V84H92V126H120" fill="none" stroke="#153240" stroke-width="2"/><circle cx="12" cy="98" r="4" fill="#1d6676"/><circle cx="54" cy="46" r="4" fill="#1d6676"/><circle cx="88" cy="22" r="4" fill="#1d6676"/><circle cx="20" cy="20" r="4" fill="#1d6676"/><circle cx="50" cy="84" r="4" fill="#1d6676"/><circle cx="92" cy="126" r="4" fill="#1d6676"/></pattern>
    <filter id="softGlow" x="-50%" y="-50%" width="200%" height="200%"><feGaussianBlur stdDeviation="14" result="blur"/><feMerge><feMergeNode in="blur"/><feMergeNode in="SourceGraphic"/></feMerge></filter>
    <symbol id="icon-start" viewBox="0 0 64 64"><circle cx="18" cy="46" r="9" fill="none" stroke="currentColor" stroke-width="3"/><path d="M14 46h8M22 20h24M40 14l10 6-10 6" fill="none" stroke="currentColor" stroke-width="3" stroke-linecap="round" stroke-linejoin="round"/><path d="M26 42c4-8 8-14 14-18" fill="none" stroke="currentColor" stroke-width="3" stroke-linecap="round"/></symbol>
    <symbol id="icon-energy" viewBox="0 0 64 64"><circle cx="32" cy="32" r="18" fill="none" stroke="currentColor" stroke-width="3"/><path d="M32 8v7M32 49v7M8 32h7M49 32h7M16 16l5 5M43 43l5 5M48 16l-5 5M21 43l-5 5" fill="none" stroke="currentColor" stroke-width="3" stroke-linecap="round"/><path d="M35 16 24 34h10l-4 14 14-20H34z" fill="currentColor"/></symbol>
    <symbol id="icon-logistics" viewBox="0 0 64 64"><path d="M8 18h14M6 28h10M12 38h8" fill="none" stroke="currentColor" stroke-width="3" stroke-linecap="round"/><rect x="22" y="24" width="20" height="14" rx="3" fill="none" stroke="currentColor" stroke-width="3"/><path d="M42 28h8l6 6v10H42" fill="none" stroke="currentColor" stroke-width="3" stroke-linejoin="round"/><circle cx="28" cy="48" r="4" fill="none" stroke="currentColor" stroke-width="3"/><circle cx="48" cy="48" r="4" fill="none" stroke="currentColor" stroke-width="3"/></symbol>
    <symbol id="icon-software" viewBox="0 0 64 64"><rect x="20" y="20" width="24" height="24" rx="4" fill="none" stroke="currentColor" stroke-width="3"/><path d="M24 8v8M32 8v8M40 8v8M24 48v8M32 48v8M40 48v8M8 24h8M8 32h8M8 40h8M48 24h8M48 32h8M48 40h8" fill="none" stroke="currentColor" stroke-width="3" stroke-linecap="round"/><path d="M26 26h12v12H26z" fill="currentColor" opacity="0.25"/></symbol>
    <symbol id="icon-creative" viewBox="0 0 64 64"><path d="M18 44 28 18l16-8 10 10-8 16-26 10z" fill="none" stroke="currentColor" stroke-width="3" stroke-linejoin="round"/><path d="M42 14l8 8" fill="none" stroke="currentColor" stroke-width="3" stroke-linecap="round"/><path d="M17 12l2-5 2 5 5 2-5 2-2 5-2-5-5-2z" fill="currentColor"/></symbol>
    <symbol id="icon-card" viewBox="0 0 64 64"><circle cx="16" cy="18" r="5" fill="none" stroke="currentColor" stroke-width="3"/><circle cx="48" cy="18" r="5" fill="none" stroke="currentColor" stroke-width="3"/><circle cx="32" cy="46" r="5" fill="none" stroke="currentColor" stroke-width="3"/><path d="M21 18h22M21 21l8 18M43 21l-8 18" fill="none" stroke="currentColor" stroke-width="3" stroke-linecap="round"/></symbol>
    <symbol id="icon-tax" viewBox="0 0 64 64"><path d="M32 10 50 20v24L32 54 14 44V20z" fill="none" stroke="currentColor" stroke-width="3" stroke-linejoin="round"/><path d="M22 32h20" fill="none" stroke="currentColor" stroke-width="4" stroke-linecap="round"/></symbol>
    <symbol id="icon-bonus" viewBox="0 0 64 64"><path d="M32 10 50 20v24L32 54 14 44V20z" fill="none" stroke="currentColor" stroke-width="3" stroke-linejoin="round"/><path d="M22 32h20M32 22v20" fill="none" stroke="currentColor" stroke-width="4" stroke-linecap="round"/></symbol>
    <symbol id="icon-audit" viewBox="0 0 64 64"><path d="M20 16h-8v12M44 16h8v12M20 48h-8V36M44 48h8V36" fill="none" stroke="currentColor" stroke-width="3" stroke-linecap="round"/><rect x="26" y="22" width="4" height="20" rx="2" fill="currentColor"/><rect x="34" y="22" width="4" height="20" rx="2" fill="currentColor"/></symbol>
    <symbol id="icon-tower" viewBox="0 0 120 120"><path d="M60 10l10 14h-6v16h16v64H40V40h16V24h-6z" fill="none" stroke="currentColor" stroke-width="4" stroke-linejoin="round"/><path d="M60 10v14M52 52h16M52 66h16M52 80h16M48 94h24" fill="none" stroke="currentColor" stroke-width="4" stroke-linecap="round"/><circle cx="60" cy="8" r="4" fill="currentColor"/></symbol>
  </defs>
  <style>.ui{font-family:"Montserrat","Segoe UI",Arial,sans-serif;fill:#fff;text-anchor:middle}.kicker{font-size:15px;font-weight:700;letter-spacing:2.2px}.tile-title{font-size:24px;font-weight:700}.tile-title-sm{font-size:21px;font-weight:700}.tile-title-xs{font-size:18px;font-weight:700}.tile-note{font-size:13px;font-weight:500;fill:#b8eef4;letter-spacing:.4px}.center-kicker{font-family:"Montserrat","Segoe UI",Arial,sans-serif;fill:#8ef6ff;font-size:24px;font-weight:700;text-anchor:middle;letter-spacing:8px}.center-title{font-family:"Montserrat","Segoe UI",Arial,sans-serif;fill:#fff;font-size:70px;font-weight:800;text-anchor:middle;letter-spacing:2px}.center-sub{font-family:"Montserrat","Segoe UI",Arial,sans-serif;fill:#a6f9ff;font-size:38px;font-weight:600;text-anchor:middle;letter-spacing:10px}.center-note{font-family:"Segoe UI",Arial,sans-serif;fill:#d6fdff;font-size:21px;font-weight:500;text-anchor:middle}.victory-title{font-family:"Montserrat","Segoe UI",Arial,sans-serif;fill:#fff;font-size:34px;font-weight:800;letter-spacing:2px;text-anchor:middle}.victory-note{font-family:"Segoe UI",Arial,sans-serif;fill:#98eff8;font-size:18px;text-anchor:middle}</style>
  <rect width="1600" height="1600" fill="url(#bgGrad)"/>
  <rect width="1600" height="1600" fill="url(#microGrid)" opacity="0.36"/>
  <rect width="1600" height="1600" fill="url(#circuitPattern)" opacity="0.16"/>
  <circle cx="240" cy="260" r="220" fill="#12d9ff" opacity="0.05" filter="url(#softGlow)"/>
  <circle cx="1340" cy="1240" r="250" fill="#12d9ff" opacity="0.06" filter="url(#softGlow)"/>
  <circle cx="800" cy="800" r="580" fill="url(#coreGlow)"/>
  <g opacity="0.42"><path d="M82 1260h120l32-66h44v-78h54v144h58v-192h58v192h46v-238h66v238h56v-154h48v154h40v-210h60v210h54v-136h46v136h48v-174h64v174h42v-116h52v116h50" fill="none" stroke="#214a5a" stroke-width="16" stroke-linejoin="round"/><path d="M114 1284h60M264 1284h82M410 1284h74M532 1284h96M670 1284h110M842 1284h90M976 1284h98M1110 1284h84M1260 1284h68" fill="none" stroke="#4defff" stroke-width="3" stroke-linecap="round" opacity="0.55"/></g>
  <rect x="70" y="70" width="1460" height="1460" rx="52" fill="url(#boardGrad)" stroke="#4defff" stroke-width="5"/>
  <rect x="90" y="90" width="1420" height="1420" rx="40" fill="none" stroke="#163746" stroke-width="2"/>
  <rect x="110" y="110" width="1380" height="1380" rx="34" fill="none" stroke="#0f2834" stroke-width="2"/>
  <g opacity="0.3" stroke="#2a7384" stroke-width="3" fill="none"><path d="M300 240h144M1296 240h140v142"/><path d="M240 300v144M240 1298v140h144"/><path d="M1360 1100v160M1240 1360h120"/><circle cx="444" cy="240" r="5" fill="#4defff"/><circle cx="240" cy="444" r="5" fill="#4defff"/><circle cx="1360" cy="1260" r="5" fill="#4defff"/><circle cx="1360" cy="382" r="5" fill="#4defff"/></g>
  <rect x="300" y="300" width="1000" height="1000" rx="38" fill="#09141c" stroke="#214452" stroke-width="3"/>
  <rect x="326" y="326" width="948" height="948" rx="28" fill="url(#centerGrad)" stroke="#3ae9ff" stroke-opacity="0.34" stroke-width="2"/>
  <rect x="352" y="352" width="896" height="896" rx="22" fill="none" stroke="#173544" stroke-width="2"/>
  <g opacity="0.55" stroke="#1c4453" stroke-width="3" fill="none"><path d="M440 460h210v-54h122"/><path d="M1110 460h-170v-60h-78"/><path d="M448 1030h160v74h92"/><path d="M1140 1030h-160v92h-102"/><circle cx="650" cy="460" r="5" fill="#50f1ff"/><circle cx="940" cy="400" r="5" fill="#50f1ff"/><circle cx="608" cy="1104" r="5" fill="#50f1ff"/><circle cx="980" cy="1122" r="5" fill="#50f1ff"/></g>
  <g transform="translate(690 410)" color="#52f3ff"><circle cx="110" cy="110" r="96" fill="#0b1c24" stroke="#2fe8ff" stroke-width="2" opacity="0.92"/><circle cx="110" cy="110" r="78" fill="none" stroke="#2fe8ff" stroke-opacity="0.35" stroke-width="2"/><use href="#icon-tower" x="50" y="42" width="120" height="120"/></g>
  <text x="800" y="690" class="center-kicker">SMART CITY BOARD</text>
  <text x="800" y="780" class="center-title">CITY VENTURE</text>
  <text x="800" y="846" class="center-sub">B2B CONNECT</text>
  <text x="800" y="904" class="center-note">Invierte, conecta y expande tu imperio empresarial en la ciudad del futuro</text>
  <g transform="translate(526 975)"><rect x="0" y="0" width="548" height="128" rx="30" fill="#0d2230" stroke="#4cefff" stroke-width="2"/><rect x="14" y="14" width="520" height="100" rx="22" fill="none" stroke="#153e4d" stroke-width="2"/><text x="274" y="56" class="victory-title">VENTURE TOWER</text><text x="274" y="90" class="victory-note">Condición de victoria y núcleo del ecosistema</text></g>
  <g opacity="0.9"><path d="M392 1188V1048h52v-82h42v82h40V914h62v134h48V836h72v212h42V900h58v148h40V954h52v94h40V878h66v170h44V986h52v62h44v140z" fill="#0d2430"/><path d="M392 1188V1088h52v-58h42v58h40V962h62v126h48V878h72v210h42V954h58v134h40V1002h52v86h40V924h66v164h44V1024h52v64h44v100z" fill="#143749" opacity="0.72"/><path d="M432 1188V1090M484 1188V1044M588 1188V950M708 1188V860M780 1188V920M878 1188V980M972 1188V916M1082 1188V1044" fill="none" stroke="#1d5364" stroke-width="4"/><g fill="#56f2ff" opacity="0.88"><rect x="456" y="990" width="8" height="14" rx="2"/><rect x="456" y="1012" width="8" height="14" rx="2"/><rect x="540" y="946" width="8" height="14" rx="2"/><rect x="540" y="970" width="8" height="14" rx="2"/><rect x="648" y="884" width="8" height="14" rx="2"/><rect x="648" y="908" width="8" height="14" rx="2"/><rect x="746" y="804" width="8" height="14" rx="2"/><rect x="746" y="828" width="8" height="14" rx="2"/><rect x="820" y="888" width="8" height="14" rx="2"/><rect x="820" y="912" width="8" height="14" rx="2"/><rect x="920" y="968" width="8" height="14" rx="2"/><rect x="920" y="992" width="8" height="14" rx="2"/><rect x="1016" y="888" width="8" height="14" rx="2"/><rect x="1016" y="912" width="8" height="14" rx="2"/><rect x="1116" y="994" width="8" height="14" rx="2"/><rect x="1116" y="1018" width="8" height="14" rx="2"/></g></g>  <g transform="translate(100 1300)">
    <rect x="8" y="8" width="184" height="184" rx="28" fill="#091721" stroke="#52f3ff" stroke-width="2.4"/>
    <rect x="18" y="18" width="164" height="30" rx="15" fill="#52f3ff" fill-opacity="0.16"/>
    <path d="M26 58h148" stroke="#52f3ff" stroke-opacity="0.28" stroke-width="2"/>
    <g transform="translate(68 64)" color="#52f3ff"><use href="#icon-start" width="64" height="64"/></g>
    <text x="100" y="39" class="ui kicker">START</text>
    <text x="100" y="140" class="ui tile-title">Capital</text>
    <text x="100" y="166" class="ui tile-title">Inicial</text>
    <text x="100" y="184" class="ui tile-note">+100 al pasar</text>
  </g>
  <g transform="translate(300 1300)">
    <rect x="8" y="8" width="184" height="184" rx="24" fill="#091721" stroke="#35f5c7" stroke-width="2.4"/>
    <rect x="18" y="18" width="164" height="30" rx="15" fill="#35f5c7" fill-opacity="0.16"/>
    <path d="M26 58h148" stroke="#35f5c7" stroke-opacity="0.28" stroke-width="2"/>
    <g transform="translate(68 64)" color="#35f5c7"><use href="#icon-energy" width="64" height="64"/></g>
    <text x="100" y="39" class="ui kicker">ENERGÍA</text>
    <text x="100" y="148" class="ui tile-title-sm">Planta Solar</text>
  </g>
  <g transform="translate(500 1300)">
    <rect x="8" y="8" width="184" height="184" rx="24" fill="#091721" stroke="#35f5c7" stroke-width="2.4"/>
    <rect x="18" y="18" width="164" height="30" rx="15" fill="#35f5c7" fill-opacity="0.16"/>
    <path d="M26 58h148" stroke="#35f5c7" stroke-opacity="0.28" stroke-width="2"/>
    <g transform="translate(68 64)" color="#35f5c7"><use href="#icon-energy" width="64" height="64"/></g>
    <text x="100" y="39" class="ui kicker">ENERGÍA</text>
    <text x="100" y="140" class="ui tile-title-sm">Baterías</text>
    <text x="100" y="166" class="ui tile-title-sm">Inteligentes</text>
  </g>
  <g transform="translate(700 1300)">
    <rect x="8" y="8" width="184" height="184" rx="24" fill="#091721" stroke="#52f3ff" stroke-width="2.4"/>
    <rect x="18" y="18" width="164" height="30" rx="15" fill="#52f3ff" fill-opacity="0.16"/>
    <path d="M26 58h148" stroke="#52f3ff" stroke-opacity="0.28" stroke-width="2"/>
    <g transform="translate(68 64)" color="#52f3ff"><use href="#icon-card" width="64" height="64"/></g>
    <text x="100" y="39" class="ui kicker">CONNECT CARD</text>
    <text x="100" y="148" class="ui tile-title-sm">Toma carta</text>
  </g>
  <g transform="translate(900 1300)">
    <rect x="8" y="8" width="184" height="184" rx="24" fill="#091721" stroke="#58d7ff" stroke-width="2.4"/>
    <rect x="18" y="18" width="164" height="30" rx="15" fill="#58d7ff" fill-opacity="0.16"/>
    <path d="M26 58h148" stroke="#58d7ff" stroke-opacity="0.28" stroke-width="2"/>
    <g transform="translate(68 64)" color="#58d7ff"><use href="#icon-logistics" width="64" height="64"/></g>
    <text x="100" y="39" class="ui kicker">LOGÍSTICA</text>
    <text x="100" y="140" class="ui tile-title-sm">Drones de</text>
    <text x="100" y="166" class="ui tile-title-sm">Entrega</text>
  </g>
  <g transform="translate(1100 1300)">
    <rect x="8" y="8" width="184" height="184" rx="24" fill="#091721" stroke="#58d7ff" stroke-width="2.4"/>
    <rect x="18" y="18" width="164" height="30" rx="15" fill="#58d7ff" fill-opacity="0.16"/>
    <path d="M26 58h148" stroke="#58d7ff" stroke-opacity="0.28" stroke-width="2"/>
    <g transform="translate(68 64)" color="#58d7ff"><use href="#icon-logistics" width="64" height="64"/></g>
    <text x="100" y="39" class="ui kicker">LOGÍSTICA</text>
    <text x="100" y="140" class="ui tile-title-xs">Transporte</text>
    <text x="100" y="166" class="ui tile-title-xs">Autónomo</text>
  </g>
  <g transform="translate(1300 1300)">
    <rect x="8" y="8" width="184" height="184" rx="28" fill="#091721" stroke="#ff8f76" stroke-width="2.4"/>
    <rect x="18" y="18" width="164" height="30" rx="15" fill="#ff8f76" fill-opacity="0.16"/>
    <path d="M26 58h148" stroke="#ff8f76" stroke-opacity="0.28" stroke-width="2"/>
    <g transform="translate(68 64)" color="#ff8f76"><use href="#icon-tax" width="64" height="64"/></g>
    <text x="100" y="39" class="ui kicker">IMPUESTO</text>
    <text x="100" y="148" class="ui tile-title-sm">Urbano</text>
    <text x="100" y="184" class="ui tile-note">Pierdes 50 créditos</text>
  </g>
  <g transform="translate(1300 1100)">
    <rect x="8" y="8" width="184" height="184" rx="24" fill="#091721" stroke="#78a9ff" stroke-width="2.4"/>
    <rect x="18" y="18" width="164" height="30" rx="15" fill="#78a9ff" fill-opacity="0.16"/>
    <path d="M26 58h148" stroke="#78a9ff" stroke-opacity="0.28" stroke-width="2"/>
    <g transform="translate(68 64)" color="#78a9ff"><use href="#icon-software" width="64" height="64"/></g>
    <text x="100" y="39" class="ui kicker">SOFTWARE</text>
    <text x="100" y="148" class="ui tile-title-sm">App Móvil</text>
  </g>
  <g transform="translate(1300 900)">
    <rect x="8" y="8" width="184" height="184" rx="24" fill="#091721" stroke="#78a9ff" stroke-width="2.4"/>
    <rect x="18" y="18" width="164" height="30" rx="15" fill="#78a9ff" fill-opacity="0.16"/>
    <path d="M26 58h148" stroke="#78a9ff" stroke-opacity="0.28" stroke-width="2"/>
    <g transform="translate(68 64)" color="#78a9ff"><use href="#icon-software" width="64" height="64"/></g>
    <text x="100" y="39" class="ui kicker">SOFTWARE</text>
    <text x="100" y="140" class="ui tile-title-sm">Base de</text>
    <text x="100" y="166" class="ui tile-title-sm">Datos</text>
  </g>
  <g transform="translate(1300 700)">
    <rect x="8" y="8" width="184" height="184" rx="24" fill="#091721" stroke="#52f3ff" stroke-width="2.4"/>
    <rect x="18" y="18" width="164" height="30" rx="15" fill="#52f3ff" fill-opacity="0.16"/>
    <path d="M26 58h148" stroke="#52f3ff" stroke-opacity="0.28" stroke-width="2"/>
    <g transform="translate(68 64)" color="#52f3ff"><use href="#icon-card" width="64" height="64"/></g>
    <text x="100" y="39" class="ui kicker">CONNECT CARD</text>
    <text x="100" y="148" class="ui tile-title-sm">Toma carta</text>
  </g>
  <g transform="translate(1300 500)">
    <rect x="8" y="8" width="184" height="184" rx="24" fill="#091721" stroke="#ffa7d1" stroke-width="2.4"/>
    <rect x="18" y="18" width="164" height="30" rx="15" fill="#ffa7d1" fill-opacity="0.16"/>
    <path d="M26 58h148" stroke="#ffa7d1" stroke-opacity="0.28" stroke-width="2"/>
    <g transform="translate(68 64)" color="#ffa7d1"><use href="#icon-creative" width="64" height="64"/></g>
    <text x="100" y="39" class="ui kicker">CREATIVO</text>
    <text x="100" y="140" class="ui tile-title-xs">Agencia</text>
    <text x="100" y="166" class="ui tile-title-xs">Publicitaria</text>
  </g>
  <g transform="translate(1300 300)">
    <rect x="8" y="8" width="184" height="184" rx="24" fill="#091721" stroke="#ffa7d1" stroke-width="2.4"/>
    <rect x="18" y="18" width="164" height="30" rx="15" fill="#ffa7d1" fill-opacity="0.16"/>
    <path d="M26 58h148" stroke="#ffa7d1" stroke-opacity="0.28" stroke-width="2"/>
    <g transform="translate(68 64)" color="#ffa7d1"><use href="#icon-creative" width="64" height="64"/></g>
    <text x="100" y="39" class="ui kicker">CREATIVO</text>
    <text x="100" y="140" class="ui tile-title-xs">Estudio de</text>
    <text x="100" y="166" class="ui tile-title-xs">Diseño</text>
  </g>
  <g transform="translate(1300 100)">
    <rect x="8" y="8" width="184" height="184" rx="28" fill="#091721" stroke="#ffcc7d" stroke-width="2.4"/>
    <rect x="18" y="18" width="164" height="30" rx="15" fill="#ffcc7d" fill-opacity="0.16"/>
    <path d="M26 58h148" stroke="#ffcc7d" stroke-opacity="0.28" stroke-width="2"/>
    <g transform="translate(68 64)" color="#ffcc7d"><use href="#icon-audit" width="64" height="64"/></g>
    <text x="100" y="39" class="ui kicker">AUDITORÍA</text>
    <text x="100" y="148" class="ui tile-title-xs">Empresarial</text>
    <text x="100" y="184" class="ui tile-note">Pierdes 1 turno</text>
  </g>
  <g transform="translate(1100 100)">
    <rect x="8" y="8" width="184" height="184" rx="24" fill="#091721" stroke="#35f5c7" stroke-width="2.4"/>
    <rect x="18" y="18" width="164" height="30" rx="15" fill="#35f5c7" fill-opacity="0.16"/>
    <path d="M26 58h148" stroke="#35f5c7" stroke-opacity="0.28" stroke-width="2"/>
    <g transform="translate(68 64)" color="#35f5c7"><use href="#icon-energy" width="64" height="64"/></g>
    <text x="100" y="39" class="ui kicker">ENERGÍA II</text>
    <text x="100" y="148" class="ui tile-title-sm">Red Eléctrica</text>
  </g>
  <g transform="translate(900 100)">
    <rect x="8" y="8" width="184" height="184" rx="24" fill="#091721" stroke="#35f5c7" stroke-width="2.4"/>
    <rect x="18" y="18" width="164" height="30" rx="15" fill="#35f5c7" fill-opacity="0.16"/>
    <path d="M26 58h148" stroke="#35f5c7" stroke-opacity="0.28" stroke-width="2"/>
    <g transform="translate(68 64)" color="#35f5c7"><use href="#icon-energy" width="64" height="64"/></g>
    <text x="100" y="39" class="ui kicker">ENERGÍA II</text>
    <text x="100" y="140" class="ui tile-title-xs">Energía</text>
    <text x="100" y="166" class="ui tile-title-xs">Inteligente</text>
  </g>
  <g transform="translate(700 100)">
    <rect x="8" y="8" width="184" height="184" rx="24" fill="#091721" stroke="#52f3ff" stroke-width="2.4"/>
    <rect x="18" y="18" width="164" height="30" rx="15" fill="#52f3ff" fill-opacity="0.16"/>
    <path d="M26 58h148" stroke="#52f3ff" stroke-opacity="0.28" stroke-width="2"/>
    <g transform="translate(68 64)" color="#52f3ff"><use href="#icon-card" width="64" height="64"/></g>
    <text x="100" y="39" class="ui kicker">CONNECT CARD</text>
    <text x="100" y="148" class="ui tile-title-sm">Toma carta</text>
  </g>
  <g transform="translate(500 100)">
    <rect x="8" y="8" width="184" height="184" rx="24" fill="#091721" stroke="#58d7ff" stroke-width="2.4"/>
    <rect x="18" y="18" width="164" height="30" rx="15" fill="#58d7ff" fill-opacity="0.16"/>
    <path d="M26 58h148" stroke="#58d7ff" stroke-opacity="0.28" stroke-width="2"/>
    <g transform="translate(68 64)" color="#58d7ff"><use href="#icon-logistics" width="64" height="64"/></g>
    <text x="100" y="39" class="ui kicker">LOGÍSTICA II</text>
    <text x="100" y="140" class="ui tile-title-xs">Centro de</text>
    <text x="100" y="166" class="ui tile-title-xs">Distribución</text>
  </g>
  <g transform="translate(300 100)">
    <rect x="8" y="8" width="184" height="184" rx="24" fill="#091721" stroke="#58d7ff" stroke-width="2.4"/>
    <rect x="18" y="18" width="164" height="30" rx="15" fill="#58d7ff" fill-opacity="0.16"/>
    <path d="M26 58h148" stroke="#58d7ff" stroke-opacity="0.28" stroke-width="2"/>
    <g transform="translate(68 64)" color="#58d7ff"><use href="#icon-logistics" width="64" height="64"/></g>
    <text x="100" y="39" class="ui kicker">LOGÍSTICA II</text>
    <text x="100" y="140" class="ui tile-title-sm">Logística</text>
    <text x="100" y="166" class="ui tile-title-sm">Global</text>
  </g>
  <g transform="translate(100 100)">
    <rect x="8" y="8" width="184" height="184" rx="28" fill="#091721" stroke="#79ffd9" stroke-width="2.4"/>
    <rect x="18" y="18" width="164" height="30" rx="15" fill="#79ffd9" fill-opacity="0.16"/>
    <path d="M26 58h148" stroke="#79ffd9" stroke-opacity="0.28" stroke-width="2"/>
    <g transform="translate(68 64)" color="#79ffd9"><use href="#icon-bonus" width="64" height="64"/></g>
    <text x="100" y="39" class="ui kicker">BONO</text>
    <text x="100" y="140" class="ui tile-title-xs">Subsidio del</text>
    <text x="100" y="166" class="ui tile-title-xs">Gobierno</text>
    <text x="100" y="184" class="ui tile-note">Ganas +100 créditos</text>
  </g>
  <g transform="translate(100 300)">
    <rect x="8" y="8" width="184" height="184" rx="24" fill="#091721" stroke="#78a9ff" stroke-width="2.4"/>
    <rect x="18" y="18" width="164" height="30" rx="15" fill="#78a9ff" fill-opacity="0.16"/>
    <path d="M26 58h148" stroke="#78a9ff" stroke-opacity="0.28" stroke-width="2"/>
    <g transform="translate(68 64)" color="#78a9ff"><use href="#icon-software" width="64" height="64"/></g>
    <text x="100" y="39" class="ui kicker">SOFTWARE II</text>
    <text x="100" y="140" class="ui tile-title-xs">Inteligencia</text>
    <text x="100" y="166" class="ui tile-title-xs">Artificial</text>
  </g>
  <g transform="translate(100 500)">
    <rect x="8" y="8" width="184" height="184" rx="24" fill="#091721" stroke="#78a9ff" stroke-width="2.4"/>
    <rect x="18" y="18" width="164" height="30" rx="15" fill="#78a9ff" fill-opacity="0.16"/>
    <path d="M26 58h148" stroke="#78a9ff" stroke-opacity="0.28" stroke-width="2"/>
    <g transform="translate(68 64)" color="#78a9ff"><use href="#icon-software" width="64" height="64"/></g>
    <text x="100" y="39" class="ui kicker">SOFTWARE II</text>
    <text x="100" y="148" class="ui tile-title-sm">Ciberseguridad</text>
  </g>
  <g transform="translate(100 700)">
    <rect x="8" y="8" width="184" height="184" rx="24" fill="#091721" stroke="#52f3ff" stroke-width="2.4"/>
    <rect x="18" y="18" width="164" height="30" rx="15" fill="#52f3ff" fill-opacity="0.16"/>
    <path d="M26 58h148" stroke="#52f3ff" stroke-opacity="0.28" stroke-width="2"/>
    <g transform="translate(68 64)" color="#52f3ff"><use href="#icon-card" width="64" height="64"/></g>
    <text x="100" y="39" class="ui kicker">CONNECT CARD</text>
    <text x="100" y="148" class="ui tile-title-sm">Toma carta</text>
  </g>
  <g transform="translate(100 900)">
    <rect x="8" y="8" width="184" height="184" rx="24" fill="#091721" stroke="#ffa7d1" stroke-width="2.4"/>
    <rect x="18" y="18" width="164" height="30" rx="15" fill="#ffa7d1" fill-opacity="0.16"/>
    <path d="M26 58h148" stroke="#ffa7d1" stroke-opacity="0.28" stroke-width="2"/>
    <g transform="translate(68 64)" color="#ffa7d1"><use href="#icon-creative" width="64" height="64"/></g>
    <text x="100" y="39" class="ui kicker">CREATIVO II</text>
    <text x="100" y="140" class="ui tile-title-sm">Productora</text>
    <text x="100" y="166" class="ui tile-title-sm">Digital</text>
  </g>
  <g transform="translate(100 1100)">
    <rect x="8" y="8" width="184" height="184" rx="24" fill="#091721" stroke="#ffa7d1" stroke-width="2.4"/>
    <rect x="18" y="18" width="164" height="30" rx="15" fill="#ffa7d1" fill-opacity="0.16"/>
    <path d="M26 58h148" stroke="#ffa7d1" stroke-opacity="0.28" stroke-width="2"/>
    <g transform="translate(68 64)" color="#ffa7d1"><use href="#icon-creative" width="64" height="64"/></g>
    <text x="100" y="39" class="ui kicker">CREATIVO II</text>
    <text x="100" y="140" class="ui tile-title-sm">Marca</text>
    <text x="100" y="166" class="ui tile-title-sm">Global</text>
  </g>
  <g opacity="0.78"><path d="M318 296h964" stroke="#4cefff" stroke-opacity="0.16" stroke-width="2"/><path d="M318 1304h964" stroke="#4cefff" stroke-opacity="0.16" stroke-width="2"/><path d="M296 318v964" stroke="#4cefff" stroke-opacity="0.16" stroke-width="2"/><path d="M1304 318v964" stroke="#4cefff" stroke-opacity="0.16" stroke-width="2"/></g>
</svg>
